#!OML:ASF F:\VICON\USERDATA\INSTALL\rory3\rory3.ASF
:FULLY-SPECIFIED
:DEGREES
28
root -0.277221879456818 17.533579733100567 4.2397732477896035 4.132877322780487 1.4236687039843066 0.05644440950737328
lfemur 2.2038818406653373 -0.30728882488939857 -26.085703771530895
ltibia 37.794216656479556
lfoot -11.012063438998307 -1.400416357822433
ltoes -26.541248197354424
rfemur -50.02914847912446 -3.5341582003121865 22.577204584744052
rtibia 96.97942071702286
rfoot 1.9609034012925126 -3.1617005230252553
rtoes 2.874029972093504
lowerback 16.51775011623659 -0.6072001888363248 -3.5845237926541715
upperback -0.9856657449752559 -1.3612721427255687 1.199180231149497
thorax -10.343649982608813 -0.39349689750149974 4.3246337757472775
lowerneck -21.463048414626797 -2.938131843694508 -1.6372304600322458
upperneck 13.029471338173959 -4.120963254951353 3.4175499802390643
head 7.594420218859526 -1.678436456003564 0.9645613337302419
lclavicle -2.8705994526993797e-15 9.58689045776197e-16
lhumerus -33.109217841700655 -19.668593593111797 97.07719955618151
lradius 119.14080139283725
lwrist 37.23922174578966
lhand -24.957316222042962 1.0764758871540416
lfingers 7.12502
lthumb 1.5527289225361323 31.023004048583495
rclavicle -2.8705994526993797e-15 9.586890457761965e-16
rhumerus -61.02057129692477 7.751135810589856 -100.32597757141757
rradius 107.88692472256304
rwrist -13.059358890522429
rhand -15.49639317977913 39.63241710176645
rfingers 7.12502
rthumb 10.685329119259636 9.580634173223558
29
root -0.2270391613576535 17.772472785534184 6.880796043585083 4.397801516094519 0.38421925191881856 -0.36804567363594254
lfemur 6.922983605918111 0.29841237644930213 -25.37683440628287
ltibia 35.06198843314469
lfoot -3.342190393139329 -4.108123051781308
ltoes -28.267615526503036
rfemur -49.57421360236992 -1.430897655026873 23.448164957884913
rtibia 89.19392118783485
rfoot 1.863628319312943 -1.7341060131448263
rtoes 0.721114282122834
lowerback 16.03286569701642 -0.7305407610011387 -3.0587317224531816
upperback -1.1396484396647677 -1.3998645323147652 1.6698418365509347
thorax -10.125816184519866 -0.4269404527404669 4.628119480190361
lowerneck -21.348244921083403 -2.6943957818041397 -1.7109245920770295
upperneck 13.45913511928325 -3.7270329996592917 3.2609127260717408
head 7.695977046974901 -1.5127554991476542 0.9490863979475392
lclavicle -1.8870920412621385e-15 1.6721325555071273e-15
lhumerus -32.32272708685914 -18.868843849061598 96.47175453396167
lradius 121.14745619225971
lwrist 38.0460960944
lhand -24.686826464318305 1.3941795184945265
lfingers 7.12502
lthumb 1.8139215363251227 31.3371650855611
rclavicle -1.887092041262138e-15 1.6721325555071273e-15
rhumerus -62.30475930255932 7.603447480389187 -99.86311343718624
rradius 109.09636722573092
rwrist -12.768508381040323
rhand -15.535556240445544 39.86638207830804
rfingers 7.12502
rthumb 10.647388916360356 9.735591246879913
30
root -0.1648868635147137 17.977503103611408 7.36806935291218 4.595021284763262 -0.8536825914440255 -0.9001635042422409
lfemur 9.777843688940722 0.17878440967757064 -25.066915704053535
ltibia 31.054584810171473
lfoot 4.886737897755128 -6.99141172449042
ltoes -27.582834471327054
rfemur -48.83585586776371 0.6297917457433663 24.168579329820048
rtibia 77.72384468988913
rfoot 1.1960129418256757 -0.03182268455733972
rtoes -3.5704561264082204
lowerback 15.45410881172169 -0.8346241138189372 -2.597068421491012
upperback -1.4307292524395125 -1.4162441316907275 2.0389378921443124
thorax -10.032041504122367 -0.4486150061779962 4.604935513978043
lowerneck -21.000713938418055 -2.562688467416516 -1.796616557644938
upperneck 13.832055500416994 -3.4893762233123358 3.0336091872599686
head 7.749490863297012 -1.4302712364291437 0.8924211312986349
lclavicle -2.2771581869361234e-15 1.3878386980524171e-15
lhumerus -33.31693129146214 -18.771259779233148 95.89566559790595
lradius 122.04261168758646
lwrist 37.73467208528395
lhand -24.236972703634823 1.3899724873833132
lfingers 7.12502
lthumb 2.2483498342220445 31.314828976633237
rclavicle -2.2771581869361234e-15 1.3878386980524173e-15
rhumerus -63.582039582900656 6.9810453973840625 -99.11002401492513
rradius 110.02110597278254
rwrist -12.315897547566413
rhand -15.799949364859229 39.92197469706744
rfingers 7.12502
rthumb 10.392107104586673 9.72894803143148
31
root -0.09544270684136988 18.178178766006234 8.336927533834366 5.011238434556706 -1.5163409187869288 -1.060383136172505
lfemur 12.581099685614058 -1.0379985156367346 -25.411353003066303
ltibia 28.611281022259448
lfoot 12.872550111505518 -9.461838643796087
ltoes -23.387284243167684
rfemur -47.595171708671415 1.7613022895441541 24.474561039413885
rtibia 65.81457531404665
rfoot 1.256952005838083 1.1878712443565833
rtoes -6.847518182992559
lowerback 14.915234955011922 -1.0923621241361914 -2.114145415357852
upperback -1.8486428347549637 -1.6572288906167767 2.277862011785743
thorax -10.042802193468711 -0.5723865537723444 4.582427009997188
lowerneck -20.57866749330927 -2.4387869766527066 -1.8502318648500782
upperneck 14.195226829589345 -3.260825264098104 2.778449677995382
head 7.794693297872906 -1.3568872223131982 0.8204262706719302
lclavicle -2.2267619976325136e-15 1.422727307111238e-15
lhumerus -34.10856275479876 -18.88579877593756 95.44852447945968
lradius 122.59069993651902
lwrist 36.83830110933115
lhand -23.758710115053 1.2317608942778486
lfingers 7.12502
lthumb 2.7102726109116837 31.156137888773166
rclavicle -2.2267619976325136e-15 1.422727307111238e-15
rhumerus -65.09199956707161 6.012023352810938 -98.33465487188954
rradius 111.19256603607096
rwrist -11.52167632398546
rhand -16.05534296220666 40.119012854137694
rfingers 7.12502
rthumb 10.14549088018643 9.863925270568757
